<?xml version="1.0" encoding="UTF-8"?><svg xmlns="http://www.w3.org/2000/svg" viewBox="0 0 35.11 35.11"><defs><style>.d{fill:#de6465;}.e{fill:#fff;}.e,.f{stroke:#fff;stroke-miterlimit:10;stroke-width:.5px;}.f{fill:none;}</style></defs><g id="a"/><g id="b"><g id="c"><g><rect class="d" width="35.11" height="35.11"/><g><path class="f" d="M15.11,11.27h4.72c.5,.47,.5,1.26-.11,1.73-.31,.24-.54,.57-.54,.97v2.1c1.12,.45,2.91,2.6,2.91,6.1H12.89c-.27-1.48,.95-5.57,3.09-6.11v-1.94c0-.4-.26-.7-.6-.91-.68-.44-.84-1.37-.27-1.93Z"/><path class="e" d="M13.67,19.07h7.71c.36,1.12,.71,2.85,.71,2.85v.24l-9.08-.09,.52-3.08,.13,.08Z"/></g></g></g></g></svg>